<svg id="Capa_1" enable-background="new 0 0 512 512" height="512" viewBox="0 0 512 512" width="512" xmlns="http://www.w3.org/2000/svg"><g><path d="m455.372.741h-398.744c-31.225 0-56.628 25.403-56.628 56.628v280.593c0 31.225 25.403 56.628 56.628 56.628h158.994l-7.091 57.262h-21.534c-16.765 0-30.404 13.639-30.404 30.404v9.003h-43.719c-5.523 0-10 4.477-10 10s4.477 10 10 10h286.252c5.523 0 10-4.477 10-10s-4.477-10-10-10h-43.719v-9.003c0-16.765-13.639-30.404-30.404-30.404h-21.534l-7.091-57.262h158.994c31.225 0 56.628-25.403 56.628-56.628 0-9.819 0-268.568 0-280.593 0-31.225-25.403-56.628-56.628-56.628zm-119.965 481.515v9.003h-158.814v-9.003c0-5.737 4.667-10.404 10.404-10.404h138.006c5.737 0 10.404 4.668 10.404 10.404zm-52.091-30.404h-54.633l7.091-57.262h40.451zm208.684-113.89c0 20.197-16.431 36.628-36.628 36.628-19.179 0-371.247 0-398.744 0-20.197 0-36.628-16.431-36.628-36.628v-8.32h347c5.523 0 10-4.477 10-10s-4.477-10-10-10h-347v-252.273c0-20.197 16.431-36.628 36.628-36.628h398.744c20.197 0 36.628 16.431 36.628 36.628v252.273h-45c-5.523 0-10 4.477-10 10s4.477 10 10 10h45z"/><path d="m431.449 48.454-9.529-8.024c-4.224-3.556-10.533-3.017-14.091 1.208-3.557 4.225-3.016 10.533 1.208 14.091l5.645 4.753h-260.882l5.645-4.753c4.224-3.558 4.765-9.866 1.208-14.091-3.558-4.225-9.866-4.763-14.091-1.208l-9.529 8.024c-13.647 11.492-13.677 32.538 0 44.056 8.083 6.125 10.167 10.375 15.965 10.375 2.848 0 5.676-1.21 7.654-3.559 3.557-4.225 3.016-10.533-1.208-14.091l-5.645-4.753h260.883l-5.645 4.753c-4.224 3.558-4.765 9.866-1.208 14.091 3.54 4.204 9.846 4.781 14.091 1.208 4.58-4.988 19.777-11.762 19.777-30.052 0-8.515-3.735-16.544-10.248-22.028z"/><path d="m111.761 125.9c8.423 0 13.132-9.924 7.645-16.441-4.988-4.58-11.762-19.776-30.052-19.776-18.275 0-25.073 15.204-30.052 19.776-3.557 4.225-3.016 10.533 1.208 14.091 4.225 3.558 10.533 3.017 14.091-1.208l4.753-5.645v140.585l-4.753-5.645c-3.558-4.224-9.866-4.764-14.091-1.208-4.224 3.558-4.765 9.866-1.208 14.091 4.988 4.58 11.762 19.777 30.052 19.777 18.275 0 25.073-15.204 30.052-19.777 3.557-4.225 3.016-10.533-1.208-14.091-4.224-3.557-10.532-3.017-14.091 1.208l-4.753 5.645v-140.585c3.473 3.344 5.597 9.203 12.407 9.203z"/><path d="m232.804 122.557h-62.585c-15.007 0-27.216 12.209-27.216 27.216v99.198c0 15.007 12.209 27.216 27.216 27.216h62.585c15.007 0 27.216-12.209 27.216-27.216v-99.198c0-15.007-12.209-27.216-27.216-27.216zm7.216 126.414c0 3.979-3.237 7.216-7.216 7.216h-62.585c-3.979 0-7.216-3.237-7.216-7.216v-99.198c0-3.979 3.237-7.216 7.216-7.216h62.585c3.979 0 7.216 3.237 7.216 7.216z"/><path d="m398.263 122.557h-96.806c-15.007 0-27.216 12.209-27.216 27.216v15.328c0 15.007 12.209 27.216 27.216 27.216h96.806c15.007 0 27.216-12.209 27.216-27.216v-15.328c0-15.007-12.209-27.216-27.216-27.216zm7.216 42.544c0 3.979-3.237 7.216-7.216 7.216h-96.806c-3.979 0-7.216-3.237-7.216-7.216v-15.328c0-3.979 3.237-7.216 7.216-7.216h96.806c3.979 0 7.216 3.237 7.216 7.216z"/><path d="m398.263 206.427h-96.806c-15.007 0-27.216 12.209-27.216 27.216v15.328c0 15.007 12.209 27.216 27.216 27.216h96.806c15.007 0 27.216-12.209 27.216-27.216v-15.328c0-15.007-12.209-27.216-27.216-27.216zm7.216 42.544c0 3.979-3.237 7.216-7.216 7.216h-96.806c-3.979 0-7.216-3.237-7.216-7.216v-15.328c0-3.979 3.237-7.216 7.216-7.216h96.806c3.979 0 7.216 3.237 7.216 7.216z"/><path d="m407.025 309.642h-.025c-5.523 0-9.988 4.477-9.988 10s4.49 10 10.013 10 10-4.477 10-10-4.477-10-10-10z"/></g></svg>