<?xml version="1.0" encoding="iso-8859-1"?>
<!-- Generator: Adobe Illustrator 19.0.0, SVG Export Plug-In . SVG Version: 6.00 Build 0)  -->
<svg version="1.1" id="Capa_1" xmlns="http://www.w3.org/2000/svg" xmlns:xlink="http://www.w3.org/1999/xlink" x="0px" y="0px"
	 viewBox="0 0 512 512" style="enable-background:new 0 0 512 512;" xml:space="preserve">
<g>
	<g>
		<g>
			<path d="M26.878,0v512h50.537v-16.5h357.17V512h50.537V0H26.878z M62.415,497H41.878V15h20.53v480.5h0.007V497z M77.415,50.537
				h18.041V59H77.415V50.537z M77.415,74h18.041v13.5H77.415V74z M77.415,102.5h18.041v45.821H77.415V102.5z M77.415,198.858H98.98
				v97.784H77.415V198.858z M77.415,347.179h40.477v9.63H77.415V347.179z M117.891,371.809v73.155H105.15v-73.155H117.891z
				 M77.415,371.809H90.15v73.155H77.415V371.809z M434.585,480.5H77.415v-20.537h357.17V480.5z M132.892,444.964v-97.785h12.742
				v97.785H132.892z M160.634,444.964v-97.785h18.129v97.785H160.634z M218.607,356.809h-24.845v-9.63h24.845V356.809z
				 M218.608,371.809v73.155h-24.845v-73.155H218.608z M251.736,370.642v13.5h-18.129v-13.5H251.736z M233.607,355.642v-8.463
				h18.129v8.463H233.607z M251.736,399.142v45.821h-18.129v-45.821H251.736z M284.865,370.642v13.5h-18.129v-13.5H284.865z
				 M266.736,355.642v-8.463h18.129v8.463H266.736z M284.865,399.142v45.821h-18.129v-45.821H284.865z M317.994,370.642v13.5
				h-18.129v-13.5H317.994z M299.865,355.642v-8.463h18.129v8.463H299.865z M317.994,399.142v45.821h-18.129v-45.821H317.994z
				 M388.597,417.5v-45.691h12.742V417.5H388.597z M401.339,432.5v12.463h-12.742V432.5H401.339z M332.994,356.809v-9.63h68.345
				v9.63H332.994z M360.855,417.5v-45.691h12.742V417.5H360.855z M373.596,432.5v12.463h-12.742V432.5H373.596z M333.112,417.5
				v-45.691h12.742V417.5H333.112z M345.854,432.5v12.463h-12.742V432.5H345.854z M434.585,444.963h-18.246v-97.785h18.246V444.963z
				 M434.585,332.179H77.415v-20.537h357.17V332.179z M113.985,296.642v-97.784h21.645v97.784H113.985z M150.634,296.642v-97.784
				h21.649v97.784H150.634z M187.284,208.488v-9.63h64.689v9.63H187.284z M251.973,223.488v73.154h-24.845v-73.154H251.973z
				 M212.128,223.488v73.154h-24.845v-73.154H212.128z M285.102,249.406v47.236h-18.129v-47.236H285.102z M266.973,234.406v-35.548
				h18.129v35.548H266.973z M318.23,234.406h-18.129v-35.548h18.129V234.406z M318.231,249.406v47.236h-18.129v-47.236H318.231z
				 M351.359,249.406v47.236H333.23v-47.236H351.359z M333.23,234.406v-35.548h18.129v35.548H333.23z M366.36,296.642v-73.154
				h12.742v73.154H366.36z M394.102,296.642v-73.154h12.742v73.154H394.102z M434.585,296.642h-12.741v-73.154h12.741V296.642z
				 M434.585,208.488h-68.226v-9.63h68.226V208.488z M434.585,183.858H77.415v-20.537h357.17V183.858z M128.585,74v13.5h-18.129V74
				H128.585z M110.456,59v-8.463h18.129V59H110.456z M128.585,102.5v45.821h-18.129V102.5H128.585z M161.715,74v13.5h-18.13V74
				H161.715z M143.585,59v-8.463h18.13V59H143.585z M161.715,102.5v45.821h-18.13V102.5H161.715z M176.715,60.167v-9.63h68.542v9.63
				H176.715z M245.257,75.167v73.154h-12.848V75.167H245.257z M217.409,75.167v73.154h-12.848V75.167H217.409z M189.562,75.167
				v73.155h-12.847V75.167H189.562z M278.386,88.25v60.071h-18.129V88.25H278.386z M260.257,73.25V50.537h18.129V73.25H260.257z
				 M293.386,60.167v-9.63h40.484v9.63H293.386z M333.87,75.167v73.154h-12.742V75.167H333.87z M306.128,75.167v73.155h-12.742
				V75.167H306.128z M348.87,148.321V50.537h12.741v97.784H348.87z M376.611,148.321V50.537h18.13v97.784H376.611z M434.585,148.321
				h-24.844V75.167h24.844V148.321z M434.585,60.167h-24.844v-9.63h24.844V60.167z M434.585,35.537H77.415V15h357.17V35.537z
				 M470.122,497h-20.537V15h20.537V497z"/>
			<rect x="86.56" y="166.09" width="15" height="15"/>
			<rect x="136.56" y="166.09" width="15" height="15"/>
			<rect x="111.56" y="166.09" width="15" height="15"/>
			<rect x="136.56" y="314.41" width="15" height="15"/>
			<rect x="111.56" y="314.41" width="15" height="15"/>
			<rect x="86.56" y="314.41" width="15" height="15"/>
			<rect x="86.56" y="462.73" width="15" height="15"/>
			<rect x="136.56" y="462.73" width="15" height="15"/>
			<rect x="111.56" y="462.73" width="15" height="15"/>
			<rect x="414.66" y="86" width="15" height="20.5"/>
			<rect x="198.69" y="382.64" width="15" height="20.5"/>
			<rect x="192.21" y="254.33" width="15" height="39.33"/>
			<rect x="232.05" y="254.33" width="15" height="39.33"/>
		</g>
	</g>
</g>
<g>
</g>
<g>
</g>
<g>
</g>
<g>
</g>
<g>
</g>
<g>
</g>
<g>
</g>
<g>
</g>
<g>
</g>
<g>
</g>
<g>
</g>
<g>
</g>
<g>
</g>
<g>
</g>
<g>
</g>
</svg>
